<?xml version="1.0" encoding="utf-8"?>
<!-- Generator: Adobe Illustrator 27.5.0, SVG Export Plug-In . SVG Version: 6.00 Build 0)  -->
<svg version="1.1" xmlns="http://www.w3.org/2000/svg" xmlns:xlink="http://www.w3.org/1999/xlink" x="0px" y="0px"
	 viewBox="0 0 799.92 799.92" style="enable-background:new 0 0 799.92 799.92;" xml:space="preserve">
<g id="Background">
	<radialGradient id="SVGID_1_" cx="399.9594" cy="399.9599" r="565.6237" gradientUnits="userSpaceOnUse">
		<stop  offset="0" style="stop-color:#5F6284"/>
		<stop  offset="1" style="stop-color:#34384E"/>
	</radialGradient>
	<rect x="-0.001" style="fill-rule:evenodd;clip-rule:evenodd;fill:url(#SVGID_1_);" width="799.921" height="799.92"/>
</g>
<g id="Objects">
	<g>
		<path style="fill-rule:evenodd;clip-rule:evenodd;fill:#EEEFF6;" d="M159.486,682.626c-18.137,5.546-25.143,26.591-24.018,45.039
			l44.255,33.323c9.765-2.382,19.99-7.587,29.424-15.285c22.964-18.741,22.887-48.432,15.172-56.447
			C216.604,681.24,187.635,674.018,159.486,682.626z"/>
		<path style="fill-rule:evenodd;clip-rule:evenodd;fill:#EEEFF6;" d="M142.544,716.25L142.544,716.25
			c6.993,3.392,16.998,0.969,18.879-6.543l22.954-91.713c1.881-7.514,0.449-15.486-6.543-18.879l0,0
			c-6.992-3.393-15.467-0.441-18.875,6.544l-22.957,91.714C134.113,704.914,135.552,712.857,142.544,716.25z"/>
		<path style="fill-rule:evenodd;clip-rule:evenodd;fill:#EEEFF6;" d="M246.409,596.582L246.409,596.582
			c-1.778-7.566-9.406-12.121-16.986-10.521l-59.648,11.779c-7.581,1.602-13.207,10.425-11.429,17.991l0,0
			c1.779,7.565,9.415,12.279,16.985,10.517l60.558-12.782C243.495,611.96,248.188,604.147,246.409,596.582z"/>
		<path style="fill-rule:evenodd;clip-rule:evenodd;fill:#EEEFF6;" d="M315.761,636.117L315.761,636.117
			c3.373-7.001,0.492-15.721-6.597-18.858l-67.662-29.96c-7.088-3.14-15.487-0.406-18.859,6.596l0,0
			c-3.373,7.003-0.398,15.469,6.597,18.858l67.664,29.961C304.011,645.862,312.389,643.12,315.761,636.117z"/>
		<path style="fill-rule:evenodd;clip-rule:evenodd;fill:#EEEFF6;" d="M205.923,610.664c-5.091,12.303-29.013,72.816,4.536,69.989
			c33.55-2.827-38.012,46.852-38.012,46.852l-24.462-49.466C147.985,678.039,158.799,615.908,205.923,610.664z"/>
		<polygon style="fill-rule:evenodd;clip-rule:evenodd;fill:#EEEFF6;" points="146.783,680.125 198.654,729.736 177.71,759.473 
			120.307,716.25 		"/>
		<path style="fill-rule:evenodd;clip-rule:evenodd;fill:#EEEFF6;" d="M109.607,718.082l73.253,55.156l-17.041,22.633
			l-73.253-55.157L109.607,718.082z"/>
		<path style="fill-rule:evenodd;clip-rule:evenodd;fill:#EEEFF6;" d="M640.676,682.626c18.136,5.546,25.143,26.591,24.018,45.039
			l-44.255,33.323c-9.765-2.382-19.99-7.587-29.424-15.285c-22.964-18.741-22.887-48.432-15.172-56.447
			C583.558,681.24,612.527,674.018,640.676,682.626z"/>
		<path style="fill-rule:evenodd;clip-rule:evenodd;fill:#EEEFF6;" d="M657.617,716.25L657.617,716.25
			c-6.992,3.392-16.997,0.969-18.878-6.543l-22.954-91.713c-1.881-7.514-0.449-15.486,6.543-18.879l0,0
			c6.992-3.393,15.467-0.441,18.875,6.544l22.957,91.714C666.049,704.914,664.61,712.857,657.617,716.25z"/>
		<path style="fill-rule:evenodd;clip-rule:evenodd;fill:#EEEFF6;" d="M553.753,596.582L553.753,596.582
			c1.778-7.566,9.406-12.121,16.986-10.521l61.117,12.063c7.58,1.601,11.737,10.142,9.959,17.708l0,0
			c-1.779,7.565-9.415,12.279-16.985,10.517l-60.558-12.782C556.666,611.96,551.974,604.147,553.753,596.582z"/>
		<path style="fill-rule:evenodd;clip-rule:evenodd;fill:#EEEFF6;" d="M484.401,636.117L484.401,636.117
			c-3.373-7.001-0.492-15.721,6.596-18.858l67.663-29.96c7.088-3.14,15.487-0.406,18.859,6.596l0,0
			c3.373,7.003,0.399,15.469-6.597,18.858l-67.664,29.961C496.15,645.862,487.773,643.12,484.401,636.117z"/>
		<path style="fill-rule:evenodd;clip-rule:evenodd;fill:#EEEFF6;" d="M594.239,610.664c5.091,12.303,29.013,72.816-4.536,69.989
			c-33.55-2.827,38.012,46.852,38.012,46.852l24.461-49.466C652.176,678.039,641.363,615.908,594.239,610.664z"/>
		<polygon style="fill-rule:evenodd;clip-rule:evenodd;fill:#EEEFF6;" points="653.379,680.125 601.508,729.736 622.452,759.473 
			679.855,716.25 		"/>
		<path style="fill-rule:evenodd;clip-rule:evenodd;fill:#EEEFF6;" d="M690.555,718.082l-73.253,55.156l17.041,22.633l73.253-55.157
			L690.555,718.082z"/>
	</g>
	<g>
		<path style="fill-rule:evenodd;clip-rule:evenodd;fill:#EEEFF6;" d="M400.23,374.955l-0.29,0.281V72.729
			c0.944-0.02,1.892-0.037,2.849-0.037c68.314,0,102.169,67.448,108.613,110.865c-5.095,0.035-9.895,1.441-13.899,4.404
			c-2.032,1.596-3.756,3.433-5.214,5.434c-1.281,1.857-2.387,3.992-3.282,6.418l-0.116-0.486c-4.43,9.928-4.45,21.797-3.736,29.37
			c1.572,6.023,4.602,4.235,6.585-0.322c-0.002-3.774,0.454-7.958,1.416-12.286c0.297-1.333,0.632-2.633,0.999-3.893l0.086-0.532
			l0.033,0.13c3.653-12.214,10.416-20.641,16.028-19.391c0.767,0.17,1.475,0.516,2.126,1.013l0.002,0.047
			c4.595,3.613,6.112,15.023,3.3,27.663c-3.16,14.202-10.614,24.68-16.798,23.748c-9.482,34.691-31.031,67.195-58.487,84.127v20.728
			l-33.792,20.348l57.511,55.592l23.434-43.755c13.242,6.06,27.749,13.907,43.96,24.058c35.13,21.998,49.273,70.893,69.588,128.525
			v0.002c-33.387,46.934-117.37,66.922-201.204,65.273v-34.125h17.094l-6.249-114.221l21.939-44.293L400.23,374.955z
			 M399.94,375.236l-32.784,31.801l21.977,44.383l-6.251,114.226h17.059v34.125c-84.326-1.659-168.503-25.21-200.884-65.273
			l-0.283-0.196c20.367-57.36,34.747-105.792,69.46-128.331c16.163-10.494,30.518-18.576,43.578-24.773l-0.001,0.001l23.815,44.469
			l57.889-55.564l-34.148-20.377l-0.004,0.004V329c-27.451-16.93-48.999-49.428-58.485-84.112
			c-6.162,0.801-13.552-9.638-16.693-23.763c-2.809-12.629-1.297-24.028,3.286-27.652v-0.012l0.059,0.012
			c0.669-0.528,1.403-0.893,2.199-1.07c6.25-1.393,13.928,9.214,17.147,23.686c1.482,6.661,1.762,12.98,1.021,17.998
			c1.803,5.199,4.738,6.268,6.498,2.286c0.642-11.709,1.467-14.838-4.553-33.902c-4.627-10.479-9.267-19.351-22.35-16.812
			l-0.06,0.025c1.655-48.158,38.419-111.37,112.511-112.955V375.236z"/>
		<path style="fill:#525571;" d="M490.849,221.438c1.581,3.576-4.954,9.317-4.98,9.261l-38.389-83.722l-124.541,44.441
			l-8.656,43.212c-1.057,5.417-6.688-8.88-5.63-14.298l6.488-32.73c0.235-1.464,1.24-2.759,2.735-3.291l130.432-46.543l0.007,0.018
			c2.043-0.731,4.335,0.23,5.227,2.247L490.849,221.438z"/>
	</g>
	<g>
		<rect x="256.237" y="502.16" style="fill-rule:evenodd;clip-rule:evenodd;fill:#4C4F68;" width="287.688" height="297.76"/>
		<g>
			<defs>
				
					<rect id="SVGID_00000160183828592202205510000017032236137645855909_" x="256.237" y="502.16" width="287.688" height="297.76"/>
			</defs>
			<clipPath id="SVGID_00000166666210927921768720000004995510100860013754_">
				<use xlink:href="#SVGID_00000160183828592202205510000017032236137645855909_"  style="overflow:visible;"/>
			</clipPath>
			<g style="clip-path:url(#SVGID_00000166666210927921768720000004995510100860013754_);">
				
					<radialGradient id="SVGID_00000018207305167748742060000008564166315460197273_" cx="399.9594" cy="399.9599" r="565.6237" gradientUnits="userSpaceOnUse">
					<stop  offset="0" style="stop-color:#5F6284"/>
					<stop  offset="1" style="stop-color:#34384E"/>
				</radialGradient>
				
					<rect x="-0.001" style="fill-rule:evenodd;clip-rule:evenodd;fill:url(#SVGID_00000018207305167748742060000008564166315460197273_);" width="799.921" height="799.92"/>
			</g>
		</g>
		<path style="fill-rule:evenodd;clip-rule:evenodd;fill:#EEEFF6;" d="M268.16,799.92h263.842V514.501H268.16V799.92z"/>
		<g>
			<path style="fill-rule:evenodd;clip-rule:evenodd;fill:#5A5D7B;" d="M281.492,664.602h232.33v-16.01h-232.33V664.602z"/>
			<g>
				<path style="fill-rule:evenodd;clip-rule:evenodd;fill:#5A5D7B;" d="M281.492,691.832h232.33v-16.01h-232.33V691.832z"/>
				<path style="fill-rule:evenodd;clip-rule:evenodd;fill:#5A5D7B;" d="M281.492,719.06h232.33v-16.01h-232.33V719.06z"/>
				<path style="fill-rule:evenodd;clip-rule:evenodd;fill:#5A5D7B;" d="M281.492,746.29h232.33v-16.01h-232.33V746.29z"/>
			</g>
		</g>
		<path style="fill-rule:evenodd;clip-rule:evenodd;fill:#5A5D7B;" d="M281.492,625h73.191v-97.697h-73.191V625z"/>
		<g>
			<path style="fill-rule:evenodd;clip-rule:evenodd;fill:#EEEFF6;" d="M318.137,595.979l-0.053,0.051v-55.025
				c0.172-0.004,0.344-0.007,0.518-0.007c12.427,0,18.584,12.269,19.757,20.166c-0.927,0.007-1.8,0.263-2.528,0.801
				c-0.37,0.291-0.684,0.625-0.949,0.989c-0.232,0.337-0.434,0.726-0.597,1.167l-0.021-0.088c-0.807,1.805-0.81,3.965-0.681,5.342
				c0.287,1.096,0.838,0.771,1.198-0.059c0-0.687,0.083-1.447,0.258-2.234c0.054-0.243,0.115-0.479,0.182-0.709l0.016-0.097
				l0.006,0.024c0.665-2.223,1.895-3.755,2.916-3.527c0.139,0.031,0.268,0.094,0.386,0.184l0.001,0.009
				c0.836,0.657,1.112,2.732,0.601,5.032c-0.575,2.583-1.932,4.489-3.056,4.319c-1.725,6.31-5.645,12.223-10.639,15.303v3.771
				l-6.146,3.701l10.461,10.112l4.263-7.959c2.408,1.103,5.047,2.529,7.996,4.376c6.39,4.002,8.962,12.894,12.658,23.379l0,0
				c-6.073,8.537-21.351,12.173-36.6,11.873v-6.207h3.109l-1.137-20.777l3.991-8.057L318.137,595.979z M318.084,596.03l-5.963,5.785
				l3.997,8.072l-1.137,20.778h3.103v6.207c-15.339-0.303-30.65-4.586-36.54-11.873l-0.052-0.035
				c3.705-10.434,6.32-19.244,12.635-23.344c2.939-1.909,5.551-3.379,7.927-4.506l0,0l4.331,8.089l10.53-10.107l-6.212-3.706l0,0
				v-3.771c-4.993-3.079-8.913-8.991-10.639-15.3c-1.121,0.145-2.465-1.753-3.036-4.322c-0.512-2.297-0.236-4.371,0.598-5.03v-0.002
				l0.011,0.002c0.121-0.097,0.255-0.162,0.4-0.194c1.137-0.254,2.533,1.676,3.118,4.309c0.27,1.211,0.32,2.361,0.186,3.273
				c0.327,0.945,0.861,1.141,1.182,0.416c0.116-2.13,0.267-2.699-0.828-6.167c-0.842-1.906-1.685-3.52-4.065-3.058l-0.011,0.004
				c0.301-8.76,6.988-20.258,20.465-20.546V596.03z"/>
			<path style="fill:#525571;" d="M334.62,568.055c0.288,0.65-0.901,1.695-0.905,1.685l-6.983-15.229l-22.653,8.084l-1.575,7.86
				c-0.192,0.985-1.216-1.615-1.023-2.601l1.18-5.953c0.043-0.267,0.226-0.502,0.498-0.6l23.725-8.465l0.002,0.002
				c0.371-0.133,0.788,0.043,0.95,0.409L334.62,568.055z"/>
		</g>
		
			<rect x="281.492" y="527.303" style="fill-rule:evenodd;clip-rule:evenodd;fill:none;stroke:#5A5D7B;stroke-width:1.44;stroke-miterlimit:22.9256;" width="73.191" height="97.697"/>
		<g>
			<path style="fill-rule:evenodd;clip-rule:evenodd;fill:#5A5D7B;" d="M371.102,543.311h142.72v-16.01h-142.72V543.311z"/>
			<g>
				<path style="fill-rule:evenodd;clip-rule:evenodd;fill:#5A5D7B;" d="M371.102,570.541h142.72v-16.01h-142.72V570.541z"/>
				<path style="fill-rule:evenodd;clip-rule:evenodd;fill:#5A5D7B;" d="M371.102,597.771h142.72v-16.01h-142.72V597.771z"/>
				<path style="fill-rule:evenodd;clip-rule:evenodd;fill:#5A5D7B;" d="M371.102,625h142.72v-16.01h-142.72V625z"/>
			</g>
		</g>
	</g>
	<g>
		<path style="fill-rule:evenodd;clip-rule:evenodd;fill:#50536D;" d="M543.925,693.458l-38.998-30.039
			c-9.8-7.548-13.175-20.915-6.317-31.246l0,0c6.857-10.331,20.896-13.148,31.244-6.313l14.071,10.839V693.458z"/>
		<path style="fill-rule:evenodd;clip-rule:evenodd;fill:#EEEFF6;" d="M598.305,705.457L598.305,705.457
			c-5.047,7.604-15.784,10.204-22.996,4.648l-65.167-50.196c-7.213-5.556-9.696-15.392-4.649-22.995l0,0
			c5.047-7.604,15.378-9.677,22.993-4.646l65.171,50.197C600.887,688.034,603.351,697.854,598.305,705.457z"/>
		<path style="fill-rule:evenodd;clip-rule:evenodd;fill:#50536D;" d="M256.237,693.458l38.998-30.039
			c9.8-7.548,13.175-20.915,6.317-31.246l0,0c-6.857-10.331-20.896-13.148-31.244-6.313l-14.071,10.839V693.458z"/>
		<path style="fill-rule:evenodd;clip-rule:evenodd;fill:#EEEFF6;" d="M201.857,705.457L201.857,705.457
			c5.047,7.604,15.784,10.204,22.996,4.648l65.167-50.196c7.212-5.556,9.696-15.392,4.649-22.995l0,0
			c-5.047-7.604-15.378-9.677-22.993-4.646l-65.171,50.197C199.275,688.034,196.811,697.854,201.857,705.457z"/>
	</g>
	<g>
		<g>
			<path style="fill-rule:evenodd;clip-rule:evenodd;fill:#484B62;" d="M294.922,776.012c0.324-0.001,0.621-0.088,0.889-0.256
				c0.272-0.17,0.487-0.432,0.65-0.784c0.159-0.354,0.239-0.793,0.239-1.317c0-0.499-0.08-0.925-0.239-1.279
				c-0.163-0.359-0.381-0.634-0.656-0.818c-0.27-0.188-0.564-0.279-0.883-0.283v-1.342c0.302,0.043,0.57,0.123,0.806,0.239
				c0.368,0.185,0.727,0.47,1.076,0.849v-2.746c0-0.383,0.076-0.67,0.229-0.867c0.151-0.198,0.369-0.292,0.648-0.292
				c0.283,0,0.502,0.089,0.652,0.271c0.154,0.178,0.229,0.442,0.229,0.792v8.209c0,0.354-0.081,0.621-0.244,0.798
				c-0.165,0.178-0.378,0.265-0.638,0.265c-0.253,0-0.464-0.089-0.628-0.274c-0.167-0.182-0.25-0.447-0.25-0.788v-0.185
				c-0.25,0.289-0.496,0.519-0.739,0.699c-0.243,0.18-0.506,0.315-0.792,0.41c-0.112,0.037-0.229,0.066-0.35,0.088V776.012z
				 M293.144,773.654c0,0.502,0.078,0.932,0.234,1.286c0.157,0.356,0.373,0.62,0.644,0.8c0.272,0.182,0.57,0.271,0.895,0.271h0.006
				v1.387c-0.184,0.033-0.376,0.05-0.578,0.05c-0.446,0-0.858-0.093-1.237-0.28c-0.379-0.188-0.709-0.459-0.986-0.811
				c-0.277-0.346-0.487-0.76-0.631-1.233c-0.145-0.472-0.215-0.983-0.215-1.534c0-1.162,0.284-2.068,0.852-2.721
				c0.568-0.648,1.316-0.974,2.243-0.974c0.195,0,0.379,0.013,0.552,0.036v1.342h-0.021c-0.341,0-0.646,0.096-0.914,0.287
				c-0.267,0.193-0.475,0.474-0.622,0.835C293.216,772.754,293.144,773.176,293.144,773.654z"/>
			<path style="fill-rule:evenodd;clip-rule:evenodd;fill:#484B62;" d="M303.674,773.065h1.686
				c-0.045-0.636-0.216-1.112-0.516-1.427c-0.297-0.315-0.688-0.474-1.171-0.475v-1.295h0.058c0.728,0,1.352,0.15,1.869,0.461
				c0.523,0.306,0.912,0.701,1.173,1.188c0.259,0.485,0.386,0.983,0.386,1.487c0,0.466-0.135,0.772-0.402,0.911
				c-0.268,0.138-0.643,0.207-1.131,0.207h-1.952V773.065L303.674,773.065z M303.674,777.445v-1.236
				c0.046,0.004,0.093,0.006,0.14,0.006c0.222,0,0.426-0.025,0.61-0.076c0.184-0.051,0.359-0.137,0.534-0.248
				c0.174-0.111,0.332-0.23,0.479-0.357c0.144-0.127,0.332-0.3,0.564-0.516c0.096-0.084,0.232-0.127,0.409-0.127
				c0.191,0,0.344,0.055,0.464,0.158c0.117,0.104,0.178,0.254,0.178,0.442c0,0.169-0.066,0.364-0.197,0.592
				c-0.134,0.224-0.331,0.44-0.599,0.647c-0.264,0.207-0.598,0.376-1.002,0.517c-0.401,0.134-0.864,0.201-1.388,0.201
				C303.802,777.448,303.738,777.447,303.674,777.445z M301.988,773.065h1.686v1.058h-1.686c0.003,0.423,0.088,0.793,0.254,1.116
				c0.166,0.325,0.387,0.567,0.663,0.729c0.235,0.143,0.491,0.222,0.77,0.241v1.236c-1.103-0.035-1.968-0.376-2.596-1.019
				c-0.663-0.682-0.995-1.606-0.995-2.771c0-0.553,0.082-1.063,0.245-1.533c0.165-0.47,0.403-0.875,0.717-1.211
				c0.314-0.334,0.699-0.592,1.159-0.773c0.442-0.173,0.933-0.262,1.47-0.268v1.295h-0.005c-0.463,0-0.845,0.158-1.141,0.478
				C302.231,771.963,302.049,772.438,301.988,773.065z"/>
			<path style="fill-rule:evenodd;clip-rule:evenodd;fill:#484B62;" d="M314.722,775.018c0,0.51-0.126,0.95-0.375,1.314
				c-0.251,0.369-0.62,0.648-1.108,0.836c-0.487,0.188-1.083,0.28-1.782,0.28c-0.668,0-1.241-0.101-1.719-0.306
				c-0.479-0.203-0.829-0.463-1.058-0.766c-0.227-0.307-0.341-0.616-0.341-0.926c0-0.204,0.072-0.379,0.219-0.523
				c0.146-0.146,0.329-0.221,0.553-0.221c0.194,0,0.345,0.051,0.45,0.146c0.104,0.092,0.204,0.228,0.301,0.398
				c0.19,0.334,0.417,0.581,0.683,0.742c0.268,0.166,0.63,0.247,1.09,0.247c0.371,0,0.677-0.083,0.917-0.247
				c0.237-0.166,0.357-0.356,0.357-0.568c0-0.328-0.126-0.568-0.372-0.719c-0.247-0.148-0.655-0.293-1.225-0.428
				c-0.64-0.16-1.162-0.324-1.564-0.502c-0.401-0.174-0.723-0.404-0.964-0.69c-0.241-0.289-0.361-0.638-0.361-1.058
				c0-0.371,0.109-0.725,0.334-1.061c0.222-0.328,0.551-0.591,0.983-0.79c0.436-0.198,0.96-0.296,1.571-0.296
				c0.482,0,0.915,0.049,1.299,0.148c0.385,0.1,0.704,0.234,0.963,0.404c0.256,0.166,0.451,0.352,0.585,0.559
				c0.134,0.204,0.202,0.402,0.202,0.599c0,0.214-0.072,0.39-0.216,0.524c-0.142,0.134-0.347,0.205-0.609,0.205
				c-0.191,0-0.354-0.055-0.488-0.162c-0.134-0.108-0.287-0.273-0.46-0.492c-0.141-0.182-0.307-0.329-0.497-0.438
				c-0.192-0.108-0.45-0.165-0.778-0.165c-0.336,0-0.615,0.076-0.838,0.22c-0.223,0.141-0.335,0.32-0.335,0.529
				c0,0.199,0.083,0.359,0.247,0.482c0.164,0.127,0.383,0.231,0.661,0.313c0.276,0.081,0.659,0.18,1.145,0.3
				c0.578,0.141,1.05,0.306,1.415,0.502c0.367,0.196,0.643,0.426,0.832,0.693C314.628,774.371,314.722,774.676,314.722,775.018z"/>
			<path style="fill-rule:evenodd;clip-rule:evenodd;fill:#484B62;" d="M318.158,770.936v5.382c0,0.373-0.089,0.653-0.266,0.845
				c-0.176,0.192-0.401,0.285-0.675,0.285c-0.272,0-0.495-0.095-0.665-0.292c-0.171-0.195-0.254-0.477-0.254-0.838v-5.324
				c0-0.367,0.083-0.648,0.254-0.83c0.17-0.188,0.393-0.281,0.665-0.281c0.273,0,0.498,0.093,0.675,0.281
				C318.069,770.346,318.158,770.605,318.158,770.936L318.158,770.936z M317.238,769.017c-0.26,0-0.48-0.083-0.664-0.239
				c-0.186-0.158-0.275-0.385-0.275-0.675c0-0.263,0.094-0.481,0.282-0.651c0.188-0.173,0.405-0.256,0.657-0.256
				c0.239,0,0.454,0.076,0.641,0.23c0.186,0.158,0.279,0.382,0.279,0.678c0,0.286-0.091,0.509-0.271,0.673
				C317.704,768.933,317.487,769.017,317.238,769.017z"/>
			<path style="fill-rule:evenodd;clip-rule:evenodd;fill:#484B62;" d="M323.323,775.894c0.303-0.003,0.591-0.086,0.858-0.248
				c0.275-0.168,0.5-0.416,0.672-0.751c0.175-0.334,0.26-0.739,0.26-1.215c0-0.761-0.168-1.352-0.502-1.774
				c-0.327-0.416-0.758-0.625-1.288-0.633v-1.331c0.286,0.048,0.547,0.134,0.781,0.255c0.386,0.201,0.743,0.521,1.078,0.951v-0.252
				c0-0.32,0.077-0.572,0.238-0.748c0.157-0.178,0.362-0.266,0.61-0.266c0.36,0,0.599,0.119,0.717,0.352
				c0.118,0.23,0.178,0.566,0.178,1.012v5.406c0,0.615-0.065,1.15-0.198,1.596c-0.131,0.446-0.341,0.811-0.634,1.104
				c-0.289,0.289-0.67,0.51-1.141,0.648c-0.444,0.13-0.986,0.201-1.63,0.209v-1.296c0.407-0.013,0.73-0.079,0.968-0.199
				c0.267-0.132,0.451-0.32,0.56-0.562c0.108-0.243,0.167-0.5,0.185-0.772c0.018-0.276,0.034-0.718,0.044-1.327
				c-0.288,0.396-0.618,0.704-0.995,0.912c-0.228,0.127-0.482,0.216-0.762,0.266V775.894z M321.533,773.606
				c0,0.752,0.164,1.324,0.494,1.71c0.33,0.384,0.756,0.578,1.278,0.578h0.018v1.336c-0.181,0.032-0.373,0.049-0.576,0.049
				c-0.622,0-1.167-0.16-1.634-0.481c-0.466-0.314-0.823-0.762-1.072-1.336c-0.251-0.572-0.376-1.232-0.376-1.984
				c0-0.555,0.077-1.061,0.229-1.51c0.153-0.451,0.369-0.832,0.65-1.141c0.282-0.31,0.607-0.541,0.977-0.699
				c0.367-0.153,0.772-0.233,1.214-0.233c0.206,0,0.402,0.016,0.589,0.047v1.331h-0.03c-0.532,0-0.96,0.2-1.279,0.606
				C321.693,772.283,321.533,772.856,321.533,773.606L321.533,773.606z M323.323,778.913v1.296l-0.126,0.001
				c-0.641,0-1.215-0.09-1.719-0.27c-0.504-0.179-0.893-0.413-1.166-0.694c-0.272-0.287-0.407-0.574-0.407-0.878
				c0-0.228,0.077-0.41,0.231-0.552c0.153-0.147,0.339-0.218,0.558-0.218c0.272,0,0.512,0.12,0.717,0.36
				c0.1,0.123,0.202,0.249,0.311,0.373c0.106,0.122,0.224,0.231,0.354,0.321c0.129,0.089,0.285,0.153,0.466,0.196
				c0.182,0.043,0.392,0.066,0.627,0.066L323.323,778.913z"/>
			<path style="fill-rule:evenodd;clip-rule:evenodd;fill:#484B62;" d="M330.499,770.91v0.227c0.326-0.434,0.684-0.751,1.074-0.95
				c0.386-0.202,0.833-0.304,1.338-0.304c0.49,0,0.93,0.106,1.316,0.316c0.384,0.215,0.674,0.52,0.865,0.909
				c0.122,0.227,0.201,0.475,0.238,0.735c0.036,0.266,0.055,0.601,0.055,1.008v3.467c0,0.373-0.085,0.653-0.255,0.845
				c-0.171,0.192-0.393,0.285-0.665,0.285c-0.278,0-0.502-0.095-0.675-0.292c-0.172-0.195-0.259-0.477-0.259-0.838v-3.103
				c0-0.61-0.085-1.083-0.256-1.409c-0.17-0.324-0.511-0.486-1.021-0.486c-0.331,0-0.634,0.1-0.906,0.296
				c-0.272,0.194-0.473,0.468-0.6,0.814c-0.09,0.281-0.137,0.8-0.137,1.556v2.333c0,0.375-0.088,0.661-0.262,0.85
				c-0.176,0.188-0.402,0.28-0.679,0.28c-0.267,0-0.488-0.095-0.662-0.292c-0.173-0.195-0.258-0.477-0.258-0.838v-5.382
				c0-0.354,0.077-0.618,0.232-0.793c0.154-0.173,0.364-0.261,0.633-0.261c0.162,0,0.312,0.036,0.442,0.113
				c0.132,0.078,0.238,0.193,0.317,0.35C330.46,770.5,330.499,770.688,330.499,770.91z"/>
			<path style="fill-rule:evenodd;clip-rule:evenodd;fill:#484B62;" d="M340.483,773.065h1.689
				c-0.047-0.636-0.219-1.112-0.517-1.427c-0.296-0.316-0.688-0.474-1.172-0.475v-1.295h0.059c0.727,0,1.351,0.15,1.87,0.461
				c0.521,0.306,0.911,0.701,1.171,1.188c0.258,0.485,0.388,0.983,0.388,1.487c0,0.466-0.135,0.772-0.402,0.911
				c-0.269,0.138-0.644,0.207-1.132,0.207h-1.953V773.065L340.483,773.065z M340.483,777.445v-1.236
				c0.046,0.004,0.093,0.006,0.14,0.006c0.224,0,0.426-0.025,0.61-0.076c0.185-0.051,0.36-0.137,0.536-0.248
				c0.172-0.111,0.332-0.23,0.477-0.357c0.145-0.127,0.334-0.3,0.564-0.516c0.098-0.084,0.233-0.127,0.409-0.127
				c0.192,0,0.345,0.055,0.464,0.158c0.118,0.104,0.179,0.254,0.179,0.442c0,0.169-0.065,0.364-0.199,0.592
				c-0.131,0.224-0.331,0.44-0.597,0.647c-0.264,0.207-0.598,0.376-1.002,0.517c-0.4,0.134-0.865,0.201-1.387,0.201
				C340.612,777.448,340.547,777.447,340.483,777.445z M338.795,773.065h1.688v1.058h-1.688c0.004,0.423,0.088,0.793,0.255,1.116
				c0.166,0.325,0.388,0.567,0.66,0.729c0.237,0.143,0.495,0.222,0.772,0.241v1.236c-1.102-0.035-1.966-0.376-2.596-1.019
				c-0.662-0.682-0.995-1.606-0.995-2.771c0-0.553,0.085-1.063,0.246-1.533c0.163-0.47,0.402-0.875,0.718-1.211
				c0.313-0.334,0.697-0.592,1.157-0.773c0.444-0.173,0.932-0.262,1.47-0.268v1.295h-0.004c-0.463,0-0.845,0.158-1.143,0.478
				C339.04,771.963,338.86,772.438,338.795,773.065z"/>
			<path style="fill-rule:evenodd;clip-rule:evenodd;fill:#484B62;" d="M348.757,776.012c0.324-0.001,0.62-0.088,0.89-0.256
				c0.268-0.17,0.485-0.432,0.647-0.784c0.161-0.354,0.242-0.793,0.242-1.317c0-0.499-0.081-0.925-0.242-1.279
				c-0.162-0.359-0.38-0.634-0.655-0.818c-0.268-0.188-0.563-0.279-0.882-0.283v-1.342c0.302,0.043,0.57,0.123,0.802,0.239
				c0.369,0.185,0.728,0.47,1.078,0.849v-2.746c0-0.383,0.076-0.67,0.23-0.867c0.152-0.198,0.368-0.292,0.651-0.292
				c0.281,0,0.497,0.089,0.65,0.271c0.151,0.178,0.228,0.442,0.228,0.792v8.209c0,0.354-0.08,0.621-0.244,0.798
				c-0.164,0.178-0.377,0.265-0.634,0.265c-0.256,0-0.465-0.089-0.632-0.274c-0.166-0.182-0.249-0.447-0.249-0.788v-0.185
				c-0.251,0.289-0.495,0.519-0.74,0.699c-0.243,0.18-0.507,0.315-0.789,0.41c-0.112,0.037-0.229,0.066-0.351,0.088V776.012z
				 M346.977,773.654c0,0.502,0.079,0.932,0.236,1.286c0.156,0.356,0.371,0.62,0.644,0.8c0.273,0.182,0.57,0.271,0.892,0.271h0.009
				v1.387c-0.185,0.033-0.377,0.05-0.58,0.05c-0.445,0-0.859-0.093-1.238-0.28c-0.379-0.188-0.707-0.459-0.984-0.811
				c-0.278-0.346-0.488-0.76-0.631-1.233c-0.143-0.472-0.216-0.983-0.216-1.534c0-1.162,0.282-2.068,0.853-2.721
				c0.569-0.648,1.316-0.974,2.244-0.974c0.195,0,0.38,0.013,0.553,0.036v1.342h-0.023c-0.339,0-0.644,0.096-0.912,0.287
				c-0.269,0.193-0.476,0.474-0.624,0.835C347.05,772.754,346.977,773.176,346.977,773.654z"/>
			<path style="fill-rule:evenodd;clip-rule:evenodd;fill:#484B62;" d="M361.341,776.012h0.062c0.468,0,0.871-0.205,1.21-0.611
				c0.34-0.406,0.508-0.989,0.508-1.746c0-0.496-0.069-0.914-0.21-1.272c-0.142-0.353-0.342-0.629-0.602-0.822
				c-0.257-0.191-0.561-0.287-0.906-0.287l-0.062,0.001v-1.341c0.173-0.025,0.357-0.038,0.554-0.038
				c0.617,0,1.159,0.148,1.625,0.439c0.466,0.292,0.828,0.716,1.083,1.276c0.259,0.553,0.386,1.215,0.386,1.979
				c0,0.566-0.071,1.082-0.214,1.551c-0.144,0.471-0.353,0.881-0.625,1.225c-0.272,0.344-0.603,0.614-0.991,0.803
				c-0.388,0.188-0.816,0.28-1.284,0.28c-0.185,0-0.362-0.015-0.533-0.042V776.012z M359.563,773.706
				c0,0.741,0.169,1.312,0.507,1.708c0.326,0.383,0.75,0.582,1.271,0.598v1.395c-0.094-0.016-0.185-0.035-0.275-0.059
				c-0.252-0.068-0.467-0.159-0.643-0.272c-0.177-0.109-0.328-0.224-0.456-0.344c-0.122-0.117-0.288-0.295-0.491-0.531v0.185
				c0,0.351-0.084,0.614-0.254,0.798c-0.167,0.178-0.381,0.265-0.641,0.265c-0.263,0-0.474-0.087-0.631-0.265
				c-0.157-0.184-0.235-0.447-0.235-0.798v-8.13c0-0.373,0.076-0.658,0.229-0.852c0.154-0.196,0.364-0.29,0.638-0.29
				c0.287,0,0.507,0.091,0.662,0.277c0.153,0.184,0.232,0.445,0.232,0.785v2.843c0.35-0.364,0.706-0.642,1.068-0.833
				c0.232-0.124,0.498-0.208,0.798-0.253v1.341c-0.329,0.011-0.623,0.106-0.885,0.286c-0.277,0.193-0.498,0.474-0.656,0.841
				C359.641,772.769,359.563,773.201,359.563,773.706z"/>
			<path style="fill-rule:evenodd;clip-rule:evenodd;fill:#484B62;" d="M368.017,777.682l0.171-0.416l-2.292-5.768
				c-0.141-0.334-0.212-0.575-0.212-0.721c0-0.158,0.042-0.313,0.124-0.447c0.081-0.137,0.193-0.244,0.337-0.324
				c0.142-0.084,0.292-0.123,0.446-0.123c0.269,0,0.471,0.084,0.607,0.254c0.136,0.17,0.259,0.414,0.362,0.732l1.575,4.582
				l1.491-4.261c0.119-0.347,0.228-0.614,0.321-0.811c0.095-0.195,0.198-0.327,0.305-0.394c0.105-0.069,0.257-0.103,0.452-0.103
				c0.142,0,0.276,0.036,0.406,0.113c0.131,0.073,0.229,0.175,0.299,0.303c0.07,0.127,0.106,0.26,0.106,0.4
				c-0.017,0.083-0.049,0.208-0.088,0.366c-0.041,0.163-0.092,0.326-0.151,0.487l-2.427,6.352c-0.209,0.563-0.413,0.998-0.614,1.314
				c-0.198,0.321-0.462,0.565-0.793,0.734c-0.331,0.172-0.774,0.257-1.333,0.257c-0.545,0-0.954-0.061-1.228-0.177
				c-0.272-0.117-0.408-0.333-0.408-0.647c0-0.215,0.065-0.379,0.193-0.496c0.131-0.119,0.321-0.174,0.578-0.174
				c0.098,0,0.196,0.014,0.292,0.041c0.118,0.027,0.22,0.039,0.308,0.039c0.213,0,0.381-0.029,0.503-0.096
				c0.123-0.058,0.234-0.172,0.331-0.328C367.776,778.217,367.89,777.985,368.017,777.682z"/>
		</g>
		<g>
			<path style="fill-rule:evenodd;clip-rule:evenodd;fill:#484B62;" d="M409.883,767.525h0.555v-0.698
				c0-0.727,0.092-1.304,0.277-1.729c0.18-0.428,0.494-0.742,0.934-0.937c0.441-0.197,1.043-0.294,1.813-0.294
				c1.35,0,2.033,0.332,2.033,0.995c0,0.212-0.076,0.397-0.217,0.554c-0.141,0.152-0.307,0.231-0.502,0.231
				c-0.092,0-0.248-0.017-0.469-0.054c-0.221-0.033-0.406-0.05-0.56-0.05c-0.422,0-0.69,0.122-0.807,0.368
				c-0.121,0.248-0.182,0.601-0.182,1.057v0.557h0.572c0.885,0,1.328,0.268,1.328,0.8c0,0.378-0.117,0.621-0.354,0.722
				c-0.236,0.102-0.561,0.158-0.975,0.158h-0.572v6.148c0,0.458-0.111,0.809-0.326,1.053c-0.217,0.241-0.5,0.357-0.848,0.357
				c-0.328,0-0.602-0.116-0.82-0.357c-0.219-0.244-0.326-0.595-0.326-1.053v-6.148h-0.641c-0.346,0-0.609-0.081-0.799-0.241
				c-0.185-0.153-0.281-0.355-0.281-0.604C408.717,767.803,409.107,767.525,409.883,767.525z"/>
			<path style="fill-rule:evenodd;clip-rule:evenodd;fill:#484B62;" d="M418.18,773.411v1.942c0,0.469-0.109,0.825-0.33,1.06
				c-0.223,0.234-0.5,0.35-0.846,0.35c-0.33,0-0.607-0.116-0.822-0.355c-0.217-0.239-0.324-0.59-0.324-1.055v-6.465
				c0-1.048,0.375-1.566,1.129-1.566c0.387,0,0.664,0.121,0.836,0.364c0.172,0.241,0.264,0.604,0.281,1.081
				c0.277-0.477,0.565-0.84,0.854-1.081c0.293-0.243,0.684-0.364,1.172-0.364c0.486,0,0.961,0.121,1.42,0.364
				c0.463,0.241,0.688,0.567,0.688,0.968c0,0.287-0.094,0.518-0.291,0.705c-0.199,0.184-0.404,0.273-0.637,0.273
				c-0.082,0-0.287-0.051-0.615-0.152c-0.326-0.109-0.611-0.162-0.865-0.162c-0.338,0-0.617,0.093-0.83,0.273
				c-0.217,0.176-0.385,0.44-0.506,0.792c-0.117,0.352-0.199,0.771-0.244,1.257C418.201,772.124,418.18,772.715,418.18,773.411z"/>
			<path style="fill-rule:evenodd;clip-rule:evenodd;fill:#484B62;" d="M427.117,771.295h2.105c-0.061-0.794-0.27-1.389-0.641-1.781
				c-0.371-0.394-0.861-0.592-1.465-0.592v-1.615l0.074-0.001c0.906,0,1.682,0.188,2.33,0.575c0.652,0.381,1.139,0.875,1.463,1.482
				c0.322,0.605,0.486,1.227,0.486,1.855c0,0.58-0.168,0.965-0.504,1.137c-0.334,0.172-0.803,0.258-1.412,0.258h-2.438V771.295
				L427.117,771.295z M427.117,776.76v-1.542c0.059,0.004,0.115,0.007,0.176,0.007c0.277,0,0.531-0.031,0.76-0.096
				c0.229-0.063,0.455-0.17,0.666-0.31c0.219-0.138,0.418-0.286,0.6-0.445c0.18-0.159,0.418-0.374,0.701-0.644
				c0.123-0.104,0.297-0.157,0.516-0.157c0.234,0,0.428,0.068,0.576,0.197c0.146,0.129,0.221,0.316,0.221,0.553
				c0,0.211-0.08,0.453-0.246,0.737c-0.166,0.28-0.412,0.551-0.74,0.809c-0.334,0.259-0.752,0.47-1.254,0.644
				c-0.504,0.168-1.08,0.252-1.732,0.252C427.277,776.764,427.197,776.762,427.117,776.76z M425.012,771.295h2.105v1.318h-2.105
				c0.008,0.528,0.111,0.99,0.318,1.393c0.207,0.405,0.479,0.708,0.828,0.909c0.293,0.179,0.613,0.277,0.959,0.302v1.542
				c-1.377-0.044-2.457-0.469-3.236-1.272c-0.828-0.85-1.244-2.003-1.244-3.459c0-0.688,0.102-1.325,0.309-1.913
				c0.203-0.586,0.502-1.092,0.891-1.512c0.391-0.416,0.875-0.738,1.449-0.964c0.551-0.216,1.16-0.326,1.832-0.333v1.615h-0.004
				c-0.578,0-1.055,0.197-1.43,0.596C425.316,769.919,425.09,770.511,425.012,771.295z"/>
			<path style="fill-rule:evenodd;clip-rule:evenodd;fill:#484B62;" d="M437.471,771.295h2.103c-0.059-0.794-0.27-1.389-0.637-1.781
				c-0.375-0.394-0.859-0.591-1.467-0.592v-1.616h0.07c0.91,0,1.69,0.188,2.338,0.575c0.647,0.381,1.137,0.875,1.461,1.482
				c0.324,0.605,0.483,1.227,0.483,1.855c0,0.58-0.168,0.965-0.502,1.137c-0.332,0.172-0.801,0.258-1.412,0.258h-2.438V771.295
				L437.471,771.295z M437.471,776.76v-1.542c0.057,0.004,0.115,0.007,0.174,0.007c0.279,0,0.531-0.031,0.76-0.096
				c0.232-0.063,0.455-0.17,0.668-0.31c0.217-0.138,0.416-0.286,0.6-0.445c0.182-0.159,0.42-0.374,0.707-0.644
				c0.119-0.104,0.283-0.157,0.508-0.157c0.24,0,0.434,0.068,0.58,0.197c0.145,0.129,0.219,0.316,0.219,0.553
				c0,0.211-0.08,0.453-0.242,0.737c-0.168,0.28-0.418,0.551-0.75,0.809c-0.33,0.259-0.746,0.47-1.246,0.644
				c-0.506,0.168-1.082,0.252-1.734,0.252C437.631,776.764,437.551,776.762,437.471,776.76z M435.367,771.295h2.104v1.318h-2.104
				c0.004,0.528,0.111,0.99,0.316,1.393c0.209,0.405,0.484,0.708,0.826,0.909c0.297,0.179,0.615,0.277,0.961,0.302v1.542
				c-1.373-0.044-2.453-0.469-3.236-1.272c-0.828-0.85-1.242-2.003-1.242-3.459c0-0.688,0.105-1.325,0.301-1.913
				c0.211-0.586,0.508-1.092,0.898-1.512c0.389-0.416,0.871-0.738,1.447-0.964c0.555-0.216,1.166-0.327,1.832-0.334v1.616h-0.006
				c-0.578,0-1.051,0.197-1.424,0.596C435.672,769.919,435.441,770.511,435.367,771.295z"/>
			<path style="fill-rule:evenodd;clip-rule:evenodd;fill:#484B62;" d="M450.242,772.001c0-0.614-0.09-1.138-0.279-1.579
				c-0.188-0.44-0.443-0.78-0.775-1.011c-0.332-0.238-0.699-0.352-1.102-0.352h-0.064v-1.668c0.203-0.035,0.414-0.052,0.633-0.052
				c0.715,0,1.371,0.185,1.975,0.552c0.602,0.371,1.076,0.908,1.428,1.617c0.344,0.707,0.52,1.545,0.52,2.521
				c0,0.712-0.102,1.367-0.301,1.968c-0.203,0.596-0.477,1.102-0.83,1.505c-0.352,0.403-0.766,0.721-1.242,0.938
				c-0.48,0.218-1,0.324-1.549,0.324c-0.223,0-0.434-0.015-0.633-0.045v-1.748h0.064c0.387,0,0.744-0.111,1.07-0.338
				c0.33-0.225,0.594-0.555,0.791-1.007C450.143,773.178,450.242,772.636,450.242,772.001z M448.021,769.059
				c-0.609,0.017-1.131,0.266-1.557,0.756c-0.439,0.504-0.662,1.247-0.662,2.23c0,0.922,0.219,1.639,0.658,2.154
				c0.42,0.498,0.941,0.755,1.561,0.772v1.748c-0.393-0.059-0.738-0.178-1.037-0.355c-0.453-0.265-0.881-0.652-1.291-1.173v3.488
				c0,1.022-0.373,1.531-1.111,1.531c-0.439,0-0.727-0.132-0.871-0.396c-0.142-0.263-0.209-0.65-0.209-1.154v-10.023
				c0-0.441,0.098-0.771,0.285-0.988c0.195-0.217,0.457-0.326,0.795-0.326c0.326,0,0.596,0.109,0.801,0.334
				c0.209,0.225,0.311,0.547,0.311,0.965v0.281c0.441-0.537,0.892-0.935,1.363-1.187c0.297-0.159,0.619-0.267,0.965-0.325V769.059z"
				/>
			<path style="fill-rule:evenodd;clip-rule:evenodd;fill:#484B62;" d="M456.764,768.637v6.717c0,0.465-0.113,0.815-0.334,1.055
				c-0.221,0.239-0.498,0.355-0.842,0.355c-0.34,0-0.613-0.119-0.83-0.364c-0.213-0.245-0.316-0.595-0.316-1.046v-6.644
				c0-0.458,0.104-0.809,0.316-1.036c0.217-0.235,0.49-0.351,0.83-0.351c0.344,0,0.621,0.115,0.842,0.351
				C456.65,767.9,456.764,768.225,456.764,768.637L456.764,768.637z M455.617,766.242c-0.326,0-0.607-0.104-0.832-0.299
				c-0.227-0.198-0.344-0.479-0.344-0.842c0-0.329,0.119-0.602,0.352-0.813c0.234-0.216,0.51-0.319,0.824-0.319
				c0.297,0,0.566,0.095,0.799,0.287c0.232,0.197,0.348,0.477,0.348,0.846c0,0.357-0.115,0.635-0.34,0.84
				C456.197,766.137,455.926,766.242,455.617,766.242z"/>
			<path style="fill-rule:evenodd;clip-rule:evenodd;fill:#484B62;" d="M464.949,775.699l-2.055-3.367l-1.26,1.193v1.846
				c0,0.447-0.113,0.791-0.346,1.035c-0.242,0.241-0.512,0.357-0.813,0.357c-0.359,0-0.641-0.116-0.846-0.355
				c-0.205-0.239-0.307-0.59-0.307-1.055v-9.903c0-0.518,0.096-0.911,0.295-1.179c0.203-0.271,0.486-0.404,0.858-0.404
				c0.355,0,0.637,0.117,0.85,0.365c0.207,0.245,0.309,0.604,0.309,1.081v5.634l2.615-2.744c0.324-0.338,0.57-0.57,0.736-0.696
				c0.174-0.124,0.381-0.185,0.623-0.185c0.293,0,0.529,0.088,0.727,0.275c0.19,0.186,0.289,0.414,0.289,0.693
				c0,0.34-0.315,0.796-0.947,1.363l-1.23,1.128l2.381,3.746c0.18,0.278,0.305,0.489,0.377,0.632
				c0.08,0.144,0.115,0.284,0.115,0.412c0,0.371-0.098,0.66-0.303,0.875c-0.201,0.21-0.469,0.316-0.793,0.316
				c-0.285,0-0.504-0.074-0.656-0.227C465.418,776.383,465.209,776.102,464.949,775.699z"/>
			<path style="fill-rule:evenodd;clip-rule:evenodd;fill:#484B62;" d="M470.689,776.764c-0.35,0-0.652-0.11-0.906-0.34
				c-0.256-0.226-0.389-0.543-0.389-0.955c0-0.343,0.125-0.643,0.367-0.892c0.246-0.249,0.549-0.372,0.904-0.372
				c0.357,0,0.66,0.123,0.914,0.367c0.252,0.247,0.379,0.545,0.379,0.896c0,0.406-0.127,0.725-0.379,0.953
				C471.326,776.653,471.031,776.764,470.689,776.764z"/>
			<path style="fill-rule:evenodd;clip-rule:evenodd;fill:#484B62;" d="M482.935,773.889c0,0.291-0.088,0.598-0.262,0.928
				c-0.172,0.332-0.436,0.642-0.787,0.942c-0.355,0.297-0.805,0.536-1.34,0.715c-0.541,0.184-1.15,0.273-1.824,0.273
				c-1.436,0-2.555-0.419-3.361-1.256c-0.803-0.833-1.209-1.956-1.209-3.36c0-0.959,0.188-1.8,0.555-2.532
				c0.367-0.729,0.904-1.296,1.603-1.692c0.695-0.402,1.527-0.601,2.498-0.601c0.6,0,1.15,0.085,1.654,0.261
				c0.504,0.178,0.926,0.4,1.277,0.685c0.348,0.274,0.613,0.571,0.801,0.886c0.184,0.316,0.273,0.609,0.273,0.881
				c0,0.281-0.104,0.518-0.312,0.709c-0.205,0.191-0.455,0.287-0.75,0.287c-0.195,0-0.358-0.051-0.483-0.148
				c-0.125-0.098-0.27-0.257-0.428-0.481c-0.285-0.429-0.58-0.755-0.889-0.97c-0.309-0.215-0.703-0.32-1.178-0.32
				c-0.686,0-1.238,0.266-1.658,0.803c-0.418,0.535-0.633,1.266-0.633,2.197c0,0.438,0.051,0.84,0.164,1.205
				c0.105,0.364,0.262,0.676,0.469,0.938c0.197,0.254,0.449,0.452,0.736,0.583c0.291,0.136,0.611,0.203,0.955,0.203
				c0.459,0,0.863-0.112,1.195-0.324c0.332-0.218,0.623-0.542,0.881-0.988c0.141-0.262,0.297-0.465,0.461-0.61
				c0.162-0.149,0.363-0.221,0.6-0.221c0.289,0,0.522,0.107,0.709,0.322C482.838,773.418,482.935,773.646,482.935,773.889z"/>
			<path style="fill-rule:evenodd;clip-rule:evenodd;fill:#484B62;" d="M491.326,772.045c0-0.949-0.215-1.685-0.629-2.213
				c-0.412-0.524-0.965-0.789-1.666-0.793v-1.717c0.701,0.002,1.332,0.117,1.902,0.336c0.57,0.228,1.06,0.549,1.471,0.973
				c0.41,0.422,0.719,0.92,0.93,1.499c0.215,0.579,0.32,1.216,0.32,1.915c0,0.689-0.105,1.328-0.322,1.91
				c-0.219,0.588-0.531,1.088-0.939,1.506c-0.408,0.42-0.893,0.744-1.459,0.972c-0.566,0.22-1.199,0.329-1.902,0.331v-1.728
				c0.701-0.005,1.254-0.268,1.666-0.795C491.111,773.71,491.326,772.977,491.326,772.045z M489.031,769.039h-0.018
				c-0.449,0-0.85,0.117-1.197,0.352c-0.342,0.238-0.611,0.585-0.801,1.041c-0.184,0.463-0.279,1.001-0.279,1.613
				c0,0.607,0.092,1.135,0.279,1.59c0.184,0.453,0.445,0.799,0.787,1.041c0.346,0.24,0.75,0.359,1.211,0.359h0.018v1.728h-0.018
				c-0.697,0-1.332-0.11-1.897-0.34c-0.557-0.226-1.043-0.549-1.459-0.973c-0.408-0.424-0.721-0.923-0.93-1.496
				c-0.215-0.577-0.322-1.215-0.322-1.91c0-0.705,0.107-1.348,0.328-1.934c0.211-0.583,0.522-1.084,0.92-1.498
				c0.404-0.412,0.893-0.732,1.463-0.957c0.578-0.225,1.207-0.334,1.897-0.334h0.018V769.039z"/>
			<path style="fill-rule:evenodd;clip-rule:evenodd;fill:#484B62;" d="M503.211,772.214v3.086c0,0.488-0.113,0.854-0.334,1.1
				c-0.219,0.245-0.514,0.364-0.877,0.364c-0.352,0-0.637-0.119-0.854-0.364c-0.219-0.245-0.33-0.611-0.33-1.1v-3.7
				c0-0.586-0.021-1.032-0.059-1.359c-0.039-0.326-0.146-0.59-0.324-0.796c-0.174-0.208-0.453-0.308-0.834-0.308
				c-0.758,0-1.258,0.258-1.496,0.777c-0.242,0.523-0.361,1.271-0.361,2.248v3.138c0,0.483-0.113,0.846-0.334,1.095
				c-0.213,0.246-0.504,0.369-0.861,0.369c-0.35,0-0.637-0.123-0.863-0.369c-0.227-0.249-0.338-0.611-0.338-1.095v-6.646
				c0-0.434,0.102-0.768,0.303-0.996c0.203-0.221,0.469-0.336,0.795-0.336c0.318,0,0.586,0.105,0.795,0.317
				c0.217,0.212,0.32,0.509,0.32,0.882v0.221c0.406-0.481,0.836-0.836,1.295-1.065c0.461-0.222,0.971-0.338,1.529-0.338
				c0.586,0,1.088,0.116,1.506,0.348c0.42,0.233,0.769,0.585,1.039,1.056c0.391-0.475,0.813-0.83,1.26-1.06
				c0.447-0.227,0.943-0.344,1.49-0.344c0.635,0,1.182,0.126,1.639,0.371c0.461,0.257,0.801,0.61,1.027,1.072
				c0.203,0.423,0.301,1.084,0.301,1.985v4.532c0,0.488-0.113,0.854-0.334,1.1c-0.217,0.245-0.508,0.364-0.875,0.364
				c-0.348,0-0.639-0.123-0.859-0.369c-0.229-0.249-0.338-0.611-0.338-1.095v-3.905c0-0.494-0.02-0.896-0.063-1.201
				c-0.047-0.297-0.158-0.552-0.346-0.753c-0.188-0.204-0.473-0.304-0.852-0.304c-0.307,0-0.594,0.09-0.871,0.27
				c-0.273,0.18-0.488,0.426-0.645,0.732C503.293,770.529,503.211,771.219,503.211,772.214z"/>
			<path style="fill-rule:evenodd;clip-rule:evenodd;fill:#484B62;" d="M391.581,761.334c-0.047-0.151-0.097-0.298-0.144-0.446
				c0.778-0.071,1.303-1.007,0.922-1.7c-0.186-0.414-0.612-0.637-1.04-0.646h-0.051c-0.361,0.007-0.717,0.164-0.926,0.485
				c-0.496,0.631-0.11,1.633,0.652,1.838c0.046,0.156,0.091,0.317,0.14,0.482c-1.17,0.075-2.363,0.338-3.344,1.006
				c0.101,0.277,0.202,0.565,0.302,0.853c1.979-0.869,4.2-0.682,6.287-0.473c0.069-0.275,0.139-0.553,0.21-0.827
				C393.644,761.48,392.608,761.324,391.581,761.334z"/>
			<path style="fill-rule:evenodd;clip-rule:evenodd;fill:#484B62;" d="M403.353,764.527c-0.313,0.161-0.373,0.538-0.351,0.853
				c-0.352,0.339-0.186,0.85-0.223,1.274c-0.078,0.237-0.365,0.266-0.563,0.353c-0.273-0.414-0.565-0.815-0.932-1.156l0.004-0.02
				c-0.4-0.374-0.831-0.715-1.288-1.012c-0.364,0.395-0.749,0.779-1.1,1.188c0.696,0.767,1.34,1.589,1.911,2.454
				c0.393,0.661,0.707,1.362,0.978,2.079c0.59-0.301,1.17-0.615,1.762-0.928c-0.313-0.715-0.666-1.418-1.045-2.107
				c0.262-0.14,0.611-0.274,0.65-0.615c0.031-0.377-0.053-0.784,0.172-1.113c0.455,0.298,1.147-0.036,1.152-0.591
				C404.545,764.615,403.824,764.205,403.353,764.527z"/>
			<path style="fill-rule:evenodd;clip-rule:evenodd;fill:#484B62;" d="M398.738,769.289c-0.139,0.957-1.05,1.767-2.026,1.707v3.836
				c1.794-0.482,3.527-1.189,5.13-2.131c0,0-0.338-1.866-1.669-3.902c-0.767-1.272-1.598-2.537-2.727-3.518
				c-0.232-0.206-0.478-0.399-0.735-0.577v2.217c0.246,0.005,0.492,0.051,0.729,0.108
				C398.336,767.346,398.923,768.357,398.738,769.289z M396.711,770.996h-0.007c-0.565,0.047-1.11-0.221-1.496-0.621
				c-0.275-0.342-0.503-0.736-0.541-1.186c-0.134-0.972,0.553-1.977,1.503-2.203c0.178-0.053,0.359-0.07,0.541-0.066v-2.217
				c-1.175-0.821-2.577-1.34-4.018-1.334c-1.776-0.021-3.571,0.204-5.263,0.75v2.108c0.313,0.001,0.626,0.044,0.928,0.129
				c0.342,0.087,0.656,0.245,0.949,0.442c0.604,0.428,1.058,1.059,1.259,1.773c0.282,0.918,0.103,1.945-0.432,2.738
				c-0.386,0.559-0.937,0.991-1.569,1.236c-0.363,0.135-0.749,0.201-1.135,0.201v2.844l0.09,0.005
				c2.076,0.063,4.17,0.115,6.232-0.177c0.996-0.131,1.986-0.326,2.958-0.588V770.996z M387.431,764.119v2.108
				c-0.535-0.002-1.069,0.121-1.541,0.378c-0.982,0.522-1.674,1.564-1.721,2.684c-0.064,0.897,0.291,1.787,0.89,2.448
				c0.599,0.661,1.485,1.01,2.372,1.011v2.844c-2.076-0.106-4.122-0.557-6.135-1.059c-0.368-1.865-0.378-3.883,0.439-5.635
				c0.848-1.95,2.522-3.459,4.45-4.309C386.593,764.412,387.008,764.256,387.431,764.119z"/>
			<path style="fill-rule:evenodd;clip-rule:evenodd;fill:#484B62;" d="M381.761,765.957c-0.83,0.502-1.512,1.207-2.08,1.984
				c-0.166-0.309-0.218-0.676-0.435-0.951c-0.123-0.166-0.345-0.099-0.518-0.102c-0.221,0.024-0.434-0.035-0.641-0.099
				c0.241-0.343,0.178-0.865-0.194-1.087c-0.396-0.287-1.012-0.039-1.116,0.434c-0.167,0.518,0.385,1.037,0.893,0.901
				c0.269,0.399,0.756,0.334,1.171,0.349c0.187,0.323,0.33,0.68,0.567,0.973c-0.444,0.877-0.695,1.857-0.715,2.843
				c0.571,0.237,1.14,0.483,1.715,0.72c0.028-0.623,0.1-1.238,0.194-1.846c0.191-1.334,0.963-2.493,1.877-3.447
				C382.251,766.39,381.999,766.183,381.761,765.957z"/>
			<path style="fill-rule:evenodd;clip-rule:evenodd;fill:#484B62;" d="M395.109,776.004c-2.104,0.459-4.275,0.594-6.426,0.5
				c-1.454-0.074-2.908-0.209-4.332-0.523c-1.006-0.205-1.992-0.496-2.983-0.78c0.159,1.265,0.67,2.477,1.401,3.521
				c0.861,1.213,2.014,2.325,3.449,2.773c1.051,0.283,2.291,0.639,4.336,0.648h0.207l0.213-0.002
				c1.902-0.033,3.772-0.275,5.441-0.985c1.076-0.462,2.087-1.095,2.954-1.884c0.748-0.706,1.335-1.586,1.742-2.531
				c0.393-0.893,0.744-2.5,0.705-3.32C399.757,774.591,397.455,775.61,395.109,776.004z"/>
		</g>
	</g>
</g>
</svg>
